<?xml version="1.0" encoding="UTF-8" standalone="no"?>
<!-- Generator: Adobe Illustrator 27.5.0, SVG Export Plug-In . SVG Version: 6.00 Build 0)  -->

<svg
   version="1.1"
   x="0px"
   y="0px"
   viewBox="0 0 450 450"
   style="enable-background:new 0 0 450 450;"
   xml:space="preserve"
   id="svg109"
   sodipodi:docname="13187503_1601.m10.i307.n008.F.c05.205439527 Vector grid marking for user HUD interface.svg"
   inkscape:version="1.4 (86a8ad7, 2024-10-11)"
   xmlns:inkscape="http://www.inkscape.org/namespaces/inkscape"
   xmlns:sodipodi="http://sodipodi.sourceforge.net/DTD/sodipodi-0.dtd"
   xmlns="http://www.w3.org/2000/svg"
   xmlns:svg="http://www.w3.org/2000/svg"><defs
   id="defs109" /><sodipodi:namedview
   id="namedview109"
   pagecolor="#ffffff"
   bordercolor="#000000"
   borderopacity="0.25"
   inkscape:showpageshadow="false"
   inkscape:pageopacity="0.0"
   inkscape:pagecheckerboard="true"
   inkscape:deskcolor="#d1d1d1"
   showborder="false"
   borderlayer="false"
   inkscape:zoom="1.8911111"
   inkscape:cx="224.73561"
   inkscape:cy="225"
   inkscape:window-width="1920"
   inkscape:window-height="1111"
   inkscape:window-x="-9"
   inkscape:window-y="-9"
   inkscape:window-maximized="1"
   inkscape:current-layer="svg109" />

<g
   id="Layer_2">
	<rect
   x="24.5"
   y="25"
   style="opacity:0.5;fill:#FFFFFF;"
   width="1"
   height="400"
   id="rect2" />
	<rect
   x="44.049"
   y="24.5"
   style="opacity:0.2;fill:#FFFFFF;"
   width="1.003"
   height="401"
   id="rect3" />
	<rect
   x="64.099"
   y="24.5"
   style="opacity:0.2;fill:#FFFFFF;"
   width="1.003"
   height="401"
   id="rect4" />
	<rect
   x="84.149"
   y="24.5"
   style="opacity:0.2;fill:#FFFFFF;"
   width="1.003"
   height="401"
   id="rect5" />
	<rect
   x="104.199"
   y="24.5"
   style="opacity:0.2;fill:#FFFFFF;"
   width="1.002"
   height="401"
   id="rect6" />
	<rect
   x="124.248"
   y="24.5"
   style="opacity:0.5;fill:#FFFFFF;"
   width="1.003"
   height="401"
   id="rect7" />
	<rect
   x="144.299"
   y="24.5"
   style="opacity:0.2;fill:#FFFFFF;"
   width="1.002"
   height="401"
   id="rect8" />
	<rect
   x="164.349"
   y="24.5"
   style="opacity:0.2;fill:#FFFFFF;"
   width="1.002"
   height="401"
   id="rect9" />
	<rect
   x="184.399"
   y="24.5"
   style="opacity:0.2;fill:#FFFFFF;"
   width="1.002"
   height="401"
   id="rect10" />
	<rect
   x="204.449"
   y="24.5"
   style="opacity:0.2;fill:#FFFFFF;"
   width="1.002"
   height="401"
   id="rect11" />
	<rect
   x="224.498"
   y="24.5"
   style="opacity:0.5;fill:#FFFFFF;"
   width="1.003"
   height="401"
   id="rect12" />
	<rect
   x="244.549"
   y="24.5"
   style="opacity:0.2;fill:#FFFFFF;"
   width="1.002"
   height="401"
   id="rect13" />
	<rect
   x="264.599"
   y="24.5"
   style="opacity:0.2;fill:#FFFFFF;"
   width="1.003"
   height="401"
   id="rect14" />
	<rect
   x="284.648"
   y="24.5"
   style="opacity:0.2;fill:#FFFFFF;"
   width="1.003"
   height="401"
   id="rect15" />
	<rect
   x="304.699"
   y="24.5"
   style="opacity:0.2;fill:#FFFFFF;"
   width="1.002"
   height="401"
   id="rect16" />
	<rect
   x="324.749"
   y="24.5"
   style="opacity:0.5;fill:#FFFFFF;"
   width="1.002"
   height="401"
   id="rect17" />
	<rect
   x="344.799"
   y="24.5"
   style="opacity:0.2;fill:#FFFFFF;"
   width="1.002"
   height="401"
   id="rect18" />
	<rect
   x="364.849"
   y="24.5"
   style="opacity:0.2;fill:#FFFFFF;"
   width="1.003"
   height="401"
   id="rect19" />
	<rect
   x="384.898"
   y="24.5"
   style="opacity:0.2;fill:#FFFFFF;"
   width="1.003"
   height="401"
   id="rect20" />
	<rect
   x="404.949"
   y="24.5"
   style="opacity:0.2;fill:#FFFFFF;"
   width="1.002"
   height="401"
   id="rect21" />
	<rect
   x="424.5"
   y="25"
   style="opacity:0.5;fill:#FFFFFF;"
   width="1"
   height="400"
   id="rect22" />
	<rect
   x="25"
   y="24.5"
   style="opacity:0.5;fill:#FFFFFF;"
   width="400"
   height="1"
   id="rect23" />
	<rect
   x="24.5"
   y="44.049"
   style="opacity:0.2;fill:#FFFFFF;"
   width="401"
   height="1.003"
   id="rect24" />
	<rect
   x="24.5"
   y="64.099"
   style="opacity:0.2;fill:#FFFFFF;"
   width="401"
   height="1.003"
   id="rect25" />
	<rect
   x="24.5"
   y="84.149"
   style="opacity:0.2;fill:#FFFFFF;"
   width="401"
   height="1.003"
   id="rect26" />
	<rect
   x="24.5"
   y="104.199"
   style="opacity:0.2;fill:#FFFFFF;"
   width="401"
   height="1.003"
   id="rect27" />
	<rect
   x="24.5"
   y="124.248"
   style="opacity:0.5;fill:#FFFFFF;"
   width="401"
   height="1.003"
   id="rect28" />
	<rect
   x="24.5"
   y="144.299"
   style="opacity:0.2;fill:#FFFFFF;"
   width="401"
   height="1.003"
   id="rect29" />
	<rect
   x="24.5"
   y="164.349"
   style="opacity:0.2;fill:#FFFFFF;"
   width="401"
   height="1.003"
   id="rect30" />
	<rect
   x="24.5"
   y="184.399"
   style="opacity:0.2;fill:#FFFFFF;"
   width="401"
   height="1.003"
   id="rect31" />
	<rect
   x="24.5"
   y="204.449"
   style="opacity:0.2;fill:#FFFFFF;"
   width="401"
   height="1.003"
   id="rect32" />
	<rect
   x="24.5"
   y="224.499"
   style="opacity:0.5;fill:#FFFFFF;"
   width="401"
   height="1.003"
   id="rect33" />
	<rect
   x="24.5"
   y="244.549"
   style="opacity:0.2;fill:#FFFFFF;"
   width="401"
   height="1.002"
   id="rect34" />
	<rect
   x="24.5"
   y="264.599"
   style="opacity:0.2;fill:#FFFFFF;"
   width="401"
   height="1.003"
   id="rect35" />
	<rect
   x="24.5"
   y="284.648"
   style="opacity:0.2;fill:#FFFFFF;"
   width="401"
   height="1.003"
   id="rect36" />
	<rect
   x="24.5"
   y="304.699"
   style="opacity:0.2;fill:#FFFFFF;"
   width="401"
   height="1.002"
   id="rect37" />
	<rect
   x="24.5"
   y="324.749"
   style="opacity:0.5;fill:#FFFFFF;"
   width="401"
   height="1.002"
   id="rect38" />
	<rect
   x="24.5"
   y="344.799"
   style="opacity:0.2;fill:#FFFFFF;"
   width="401"
   height="1.002"
   id="rect39" />
	<rect
   x="24.5"
   y="364.849"
   style="opacity:0.2;fill:#FFFFFF;"
   width="401"
   height="1.003"
   id="rect40" />
	<rect
   x="24.5"
   y="384.898"
   style="opacity:0.2;fill:#FFFFFF;"
   width="401"
   height="1.003"
   id="rect41" />
	<rect
   x="24.5"
   y="404.949"
   style="opacity:0.2;fill:#FFFFFF;"
   width="401"
   height="1.002"
   id="rect42" />
	<rect
   x="25"
   y="424.5"
   style="opacity:0.5;fill:#FFFFFF;"
   width="400"
   height="1"
   id="rect43" />
	<g
   id="g45">
		<rect
   x="24.5"
   y="21.5"
   style="fill:#FFFFFF;"
   width="1"
   height="7"
   id="rect44" />
		<rect
   x="21.5"
   y="24.5"
   style="fill:#FFFFFF;"
   width="7"
   height="1"
   id="rect45" />
	</g>
	<g
   id="g47">
		<rect
   x="424.5"
   y="21.5"
   style="fill:#FFFFFF;"
   width="1"
   height="7"
   id="rect46" />
		<rect
   x="421.5"
   y="24.5"
   style="fill:#FFFFFF;"
   width="7"
   height="1"
   id="rect47" />
	</g>
	<g
   id="g49">
		<rect
   x="24.5"
   y="121.5"
   style="fill:#FFFFFF;"
   width="1"
   height="7"
   id="rect48" />
		<rect
   x="21.5"
   y="124.5"
   style="fill:#FFFFFF;"
   width="7"
   height="1"
   id="rect49" />
	</g>
	<g
   id="g51">
		<rect
   x="424.5"
   y="121.5"
   style="fill:#FFFFFF;"
   width="1"
   height="7"
   id="rect50" />
		<rect
   x="421.5"
   y="124.5"
   style="fill:#FFFFFF;"
   width="7"
   height="1"
   id="rect51" />
	</g>
	<g
   id="g53">
		<rect
   x="24.5"
   y="221.5"
   style="fill:#FFFFFF;"
   width="1"
   height="7"
   id="rect52" />
		<rect
   x="21.5"
   y="224.5"
   style="fill:#FFFFFF;"
   width="7"
   height="1"
   id="rect53" />
	</g>
	<g
   id="g55">
		<rect
   x="424.5"
   y="221.5"
   style="fill:#FFFFFF;"
   width="1"
   height="7"
   id="rect54" />
		<rect
   x="421.5"
   y="224.5"
   style="fill:#FFFFFF;"
   width="7"
   height="1"
   id="rect55" />
	</g>
	<g
   id="g57">
		<rect
   x="24.5"
   y="321.5"
   style="fill:#FFFFFF;"
   width="1"
   height="7"
   id="rect56" />
		<rect
   x="21.5"
   y="324.5"
   style="fill:#FFFFFF;"
   width="7"
   height="1"
   id="rect57" />
	</g>
	<g
   id="g59">
		<rect
   x="424.5"
   y="321.5"
   style="fill:#FFFFFF;"
   width="1"
   height="7"
   id="rect58" />
		<rect
   x="421.5"
   y="324.5"
   style="fill:#FFFFFF;"
   width="7"
   height="1"
   id="rect59" />
	</g>
	<g
   id="g61">
		<rect
   x="24.5"
   y="421.5"
   style="fill:#FFFFFF;"
   width="1"
   height="7"
   id="rect60" />
		<rect
   x="21.5"
   y="424.5"
   style="fill:#FFFFFF;"
   width="7"
   height="1"
   id="rect61" />
	</g>
	<g
   id="g63">
		<rect
   x="124.5"
   y="21.5"
   style="fill:#FFFFFF;"
   width="1"
   height="7"
   id="rect62" />
		<rect
   x="121.5"
   y="24.5"
   style="fill:#FFFFFF;"
   width="7"
   height="1"
   id="rect63" />
	</g>
	<g
   id="g65">
		<rect
   x="124.5"
   y="121.5"
   style="fill:#FFFFFF;"
   width="1"
   height="7"
   id="rect64" />
		<rect
   x="121.5"
   y="124.5"
   style="fill:#FFFFFF;"
   width="7"
   height="1"
   id="rect65" />
	</g>
	<g
   id="g67">
		<rect
   x="124.5"
   y="221.5"
   style="fill:#FFFFFF;"
   width="1"
   height="7"
   id="rect66" />
		<rect
   x="121.5"
   y="224.5"
   style="fill:#FFFFFF;"
   width="7"
   height="1"
   id="rect67" />
	</g>
	<g
   id="g69">
		<rect
   x="124.5"
   y="321.5"
   style="fill:#FFFFFF;"
   width="1"
   height="7"
   id="rect68" />
		<rect
   x="121.5"
   y="324.5"
   style="fill:#FFFFFF;"
   width="7"
   height="1"
   id="rect69" />
	</g>
	<g
   id="g71">
		<rect
   x="124.5"
   y="421.5"
   style="fill:#FFFFFF;"
   width="1"
   height="7"
   id="rect70" />
		<rect
   x="121.5"
   y="424.5"
   style="fill:#FFFFFF;"
   width="7"
   height="1"
   id="rect71" />
	</g>
	<g
   id="g73">
		<rect
   x="224.5"
   y="21.5"
   style="fill:#FFFFFF;"
   width="1"
   height="7"
   id="rect72" />
		<rect
   x="221.5"
   y="24.5"
   style="fill:#FFFFFF;"
   width="7"
   height="1"
   id="rect73" />
	</g>
	<g
   id="g75">
		<rect
   x="224.5"
   y="121.5"
   style="fill:#FFFFFF;"
   width="1"
   height="7"
   id="rect74" />
		<rect
   x="221.5"
   y="124.5"
   style="fill:#FFFFFF;"
   width="7"
   height="1"
   id="rect75" />
	</g>
	<g
   id="g77">
		<rect
   x="224.5"
   y="221.5"
   style="fill:#FFFFFF;"
   width="1"
   height="7"
   id="rect76" />
		<rect
   x="221.5"
   y="224.5"
   style="fill:#FFFFFF;"
   width="7"
   height="1"
   id="rect77" />
	</g>
	<g
   id="g79">
		<rect
   x="224.5"
   y="321.5"
   style="fill:#FFFFFF;"
   width="1"
   height="7"
   id="rect78" />
		<rect
   x="221.5"
   y="324.5"
   style="fill:#FFFFFF;"
   width="7"
   height="1"
   id="rect79" />
	</g>
	<g
   id="g81">
		<rect
   x="224.5"
   y="421.5"
   style="fill:#FFFFFF;"
   width="1"
   height="7"
   id="rect80" />
		<rect
   x="221.5"
   y="424.5"
   style="fill:#FFFFFF;"
   width="7"
   height="1"
   id="rect81" />
	</g>
	<g
   id="g83">
		<rect
   x="324.5"
   y="21.5"
   style="fill:#FFFFFF;"
   width="1"
   height="7"
   id="rect82" />
		<rect
   x="321.5"
   y="24.5"
   style="fill:#FFFFFF;"
   width="7"
   height="1"
   id="rect83" />
	</g>
	<g
   id="g85">
		<rect
   x="324.5"
   y="121.5"
   style="fill:#FFFFFF;"
   width="1"
   height="7"
   id="rect84" />
		<rect
   x="321.5"
   y="124.5"
   style="fill:#FFFFFF;"
   width="7"
   height="1"
   id="rect85" />
	</g>
	<g
   id="g87">
		<rect
   x="324.5"
   y="221.5"
   style="fill:#FFFFFF;"
   width="1"
   height="7"
   id="rect86" />
		<rect
   x="321.5"
   y="224.5"
   style="fill:#FFFFFF;"
   width="7"
   height="1"
   id="rect87" />
	</g>
	<g
   id="g89">
		<rect
   x="324.5"
   y="321.5"
   style="fill:#FFFFFF;"
   width="1"
   height="7"
   id="rect88" />
		<rect
   x="321.5"
   y="324.5"
   style="fill:#FFFFFF;"
   width="7"
   height="1"
   id="rect89" />
	</g>
	<g
   id="g91">
		<rect
   x="324.5"
   y="421.5"
   style="fill:#FFFFFF;"
   width="1"
   height="7"
   id="rect90" />
		<rect
   x="321.5"
   y="424.5"
   style="fill:#FFFFFF;"
   width="7"
   height="1"
   id="rect91" />
	</g>
	<g
   id="g93">
		<rect
   x="424.5"
   y="421.5"
   style="fill:#FFFFFF;"
   width="1"
   height="7"
   id="rect92" />
		<rect
   x="421.5"
   y="424.5"
   style="fill:#FFFFFF;"
   width="7"
   height="1"
   id="rect93" />
	</g>
	<rect
   x="74.5"
   y="74.5"
   style="fill:#FFFFFF;"
   width="1"
   height="1"
   id="rect94" />
	<rect
   x="174.5"
   y="74.5"
   style="fill:#FFFFFF;"
   width="1"
   height="1"
   id="rect95" />
	<rect
   x="274.5"
   y="74.5"
   style="fill:#FFFFFF;"
   width="1"
   height="1"
   id="rect96" />
	<rect
   x="374.5"
   y="74.5"
   style="fill:#FFFFFF;"
   width="1"
   height="1"
   id="rect97" />
	<rect
   x="74.5"
   y="174.5"
   style="fill:#FFFFFF;"
   width="1"
   height="1"
   id="rect98" />
	<rect
   x="174.5"
   y="174.5"
   style="fill:#FFFFFF;"
   width="1"
   height="1"
   id="rect99" />
	<rect
   x="274.5"
   y="174.5"
   style="fill:#FFFFFF;"
   width="1"
   height="1"
   id="rect100" />
	<rect
   x="374.5"
   y="174.5"
   style="fill:#FFFFFF;"
   width="1"
   height="1"
   id="rect101" />
	<rect
   x="74.5"
   y="274.5"
   style="fill:#FFFFFF;"
   width="1"
   height="1"
   id="rect102" />
	<rect
   x="174.5"
   y="274.5"
   style="fill:#FFFFFF;"
   width="1"
   height="1"
   id="rect103" />
	<rect
   x="274.5"
   y="274.5"
   style="fill:#FFFFFF;"
   width="1"
   height="1"
   id="rect104" />
	<rect
   x="374.5"
   y="274.5"
   style="fill:#FFFFFF;"
   width="1"
   height="1"
   id="rect105" />
	<rect
   x="74.5"
   y="374.5"
   style="fill:#FFFFFF;"
   width="1"
   height="1"
   id="rect106" />
	<rect
   x="174.5"
   y="374.5"
   style="fill:#FFFFFF;"
   width="1"
   height="1"
   id="rect107" />
	<rect
   x="274.5"
   y="374.5"
   style="fill:#FFFFFF;"
   width="1"
   height="1"
   id="rect108" />
	<rect
   x="374.5"
   y="374.5"
   style="fill:#FFFFFF;"
   width="1"
   height="1"
   id="rect109" />
</g>
</svg>
